<?xml version="1.0" encoding="utf-8"?>
<!-- Generator: Adobe Illustrator 14.0.0, SVG Export Plug-In . SVG Version: 6.00 Build 43363)  -->
<!DOCTYPE svg PUBLIC "-//W3C//DTD SVG 1.1//EN" "http://www.w3.org/Graphics/SVG/1.1/DTD/svg11.dtd">
<svg version="1.1" id="Layer_1" xmlns="http://www.w3.org/2000/svg" xmlns:xlink="http://www.w3.org/1999/xlink" x="0px" y="0px"
	 width="28px" height="28.08px" viewBox="0 0 28 28.08" enable-background="new 0 0 28 28.08" xml:space="preserve">
<path fill="#333333" d="M7.675,5.919c-1.069,0-1.938,0.897-1.938,2c0,1.103,0.869,2,1.938,2h12.647c1.068,0,1.939-0.897,1.939-2
	c0-1.104-0.871-2-1.939-2H7.675z"/>
<path fill="#898989" d="M7.675,6.56c-1.069,0-1.938,0.748-1.938,1.665c0,0.918,0.869,1.666,1.938,1.666h12.647
	c1.068,0,1.939-0.748,1.939-1.666S21.391,6.56,20.322,6.56H7.675z"/>
<path fill="#333333" d="M7.675,12.079c-1.069,0-1.938,0.897-1.938,2c0,1.103,0.869,2,1.938,2h12.647c1.068,0,1.939-0.897,1.939-2
	c0-1.104-0.871-2-1.939-2H7.675z"/>
<path fill="#898989" d="M7.675,12.72c-1.069,0-1.938,0.748-1.938,1.666s0.869,1.665,1.938,1.665h12.647
	c1.068,0,1.939-0.747,1.939-1.665c0-0.919-0.871-1.666-1.939-1.666H7.675z"/>
<path fill="#333333" d="M7.675,18.358c-1.069,0-1.938,0.897-1.938,2s0.869,2,1.938,2h12.647c1.068,0,1.939-0.897,1.939-2
	c0-1.104-0.871-2-1.939-2H7.675z"/>
<path fill="#898989" d="M7.675,19c-1.069,0-1.938,0.747-1.938,1.665s0.869,1.665,1.938,1.665h12.647
	c1.068,0,1.939-0.747,1.939-1.665c0-0.919-0.871-1.665-1.939-1.665H7.675z"/>
</svg>
